<?xml version="1.0" encoding="UTF-8"?>
<svg xmlns="http://www.w3.org/2000/svg" xmlns:xlink="http://www.w3.org/1999/xlink" version="1.1" baseProfile="full" viewBox="-10 -38 120 135" stroke-width="0.5" fill="white" stroke="#000">
<path d="M 0.000000,0.000000 L 0.617284,1.069167 0.000000,2.138334 1.234568,2.138334 1.851852,3.207501 1.234568,4.276669 0.000000,4.276669 0.617284,5.345836 0.000000,6.415003 1.234568,6.415003 1.851852,7.484170 2.469136,6.415003 3.703704,6.415003 4.320988,7.484170 3.703704,8.553337 4.938272,8.553337 5.555556,9.622504 4.938272,10.691672 3.703704,10.691672 4.320988,11.760839 3.703704,12.830006 2.469136,12.830006 1.851852,11.760839 1.234568,12.830006 0.000000,12.830006 0.617284,13.899173 0.000000,14.968340 1.234568,14.968340 1.851852,16.037507 1.234568,17.106675 0.000000,17.106675 0.617284,18.175842 0.000000,19.245009 1.234568,19.245009 1.851852,20.314176 2.469136,19.245009 3.703704,19.245009 4.320988,20.314176 3.703704,21.383343 4.938272,21.383343 5.555556,22.452510 6.172840,21.383343 7.407407,21.383343 6.790123,20.314176 7.407407,19.245009 8.641975,19.245009 9.259259,20.314176 9.876543,19.245009 11.111111,19.245009 11.728395,20.314176 11.111111,21.383343 12.345679,21.383343 12.962963,22.452510 12.345679,23.521678 11.111111,23.521678 11.728395,24.590845 11.111111,25.660012 12.345679,25.660012 12.962963,26.729179 13.580247,25.660012 14.814815,25.660012 15.432099,26.729179 14.814815,27.798346 16.049383,27.798346 16.666667,28.867513 16.049383,29.936681 14.814815,29.936681 15.432099,31.005848 14.814815,32.075015 13.580247,32.075015 12.962963,31.005848 12.345679,32.075015 11.111111,32.075015 11.728395,33.144182 11.111111,34.213349 12.345679,34.213349 12.962963,35.282516 12.345679,36.351684 11.111111,36.351684 11.728395,37.420851 11.111111,38.490018 9.876543,38.490018 9.259259,37.420851 8.641975,38.490018 7.407407,38.490018 6.790123,37.420851 7.407407,36.351684 6.172840,36.351684 5.555556,35.282516 4.938272,36.351684 3.703704,36.351684 4.320988,37.420851 3.703704,38.490018 2.469136,38.490018 1.851852,37.420851 1.234568,38.490018 0.000000,38.490018 0.617284,39.559185 0.000000,40.628352 1.234568,40.628352 1.851852,41.697519 1.234568,42.766687 0.000000,42.766687 0.617284,43.835854 0.000000,44.905021 1.234568,44.905021 1.851852,45.974188 2.469136,44.905021 3.703704,44.905021 4.320988,45.974188 3.703704,47.043355 4.938272,47.043355 5.555556,48.112522 4.938272,49.181690 3.703704,49.181690 4.320988,50.250857 3.703704,51.320024 2.469136,51.320024 1.851852,50.250857 1.234568,51.320024 0.000000,51.320024 0.617284,52.389191 0.000000,53.458358 1.234568,53.458358 1.851852,54.527525 1.234568,55.596693 0.000000,55.596693 0.617284,56.665860 0.000000,57.735027 1.234568,57.735027 1.851852,58.804194 2.469136,57.735027 3.703704,57.735027 4.320988,58.804194 3.703704,59.873361 4.938272,59.873361 5.555556,60.942528 6.172840,59.873361 7.407407,59.873361 6.790123,58.804194 7.407407,57.735027 8.641975,57.735027 9.259259,58.804194 9.876543,57.735027 11.111111,57.735027 11.728395,58.804194 11.111111,59.873361 12.345679,59.873361 12.962963,60.942528 12.345679,62.011696 11.111111,62.011696 11.728395,63.080863 11.111111,64.150030 12.345679,64.150030 12.962963,65.219197 13.580247,64.150030 14.814815,64.150030 15.432099,65.219197 14.814815,66.288364 16.049383,66.288364 16.666667,67.357531 17.283951,66.288364 18.518519,66.288364 17.901235,65.219197 18.518519,64.150030 19.753086,64.150030 20.370370,65.219197 20.987654,64.150030 22.222222,64.150030 21.604938,63.080863 22.222222,62.011696 20.987654,62.011696 20.370370,60.942528 20.987654,59.873361 22.222222,59.873361 21.604938,58.804194 22.222222,57.735027 23.456790,57.735027 24.074074,58.804194 24.691358,57.735027 25.925926,57.735027 26.543210,58.804194 25.925926,59.873361 27.160494,59.873361 27.777778,60.942528 28.395062,59.873361 29.629630,59.873361 29.012346,58.804194 29.629630,57.735027 30.864198,57.735027 31.481481,58.804194 32.098765,57.735027 33.333333,57.735027 33.950617,58.804194 33.333333,59.873361 34.567901,59.873361 35.185185,60.942528 34.567901,62.011696 33.333333,62.011696 33.950617,63.080863 33.333333,64.150030 34.567901,64.150030 35.185185,65.219197 35.802469,64.150030 37.037037,64.150030 37.654321,65.219197 37.037037,66.288364 38.271605,66.288364 38.888889,67.357531 38.271605,68.426699 37.037037,68.426699 37.654321,69.495866 37.037037,70.565033 35.802469,70.565033 35.185185,69.495866 34.567901,70.565033 33.333333,70.565033 33.950617,71.634200 33.333333,72.703367 34.567901,72.703367 35.185185,73.772534 34.567901,74.841702 33.333333,74.841702 33.950617,75.910869 33.333333,76.980036 34.567901,76.980036 35.185185,78.049203 35.802469,76.980036 37.037037,76.980036 37.654321,78.049203 37.037037,79.118370 38.271605,79.118370 38.888889,80.187537 39.506173,79.118370 40.740741,79.118370 40.123457,78.049203 40.740741,76.980036 41.975309,76.980036 42.592593,78.049203 43.209877,76.980036 44.444444,76.980036 45.061728,78.049203 44.444444,79.118370 45.679012,79.118370 46.296296,80.187537 45.679012,81.256705 44.444444,81.256705 45.061728,82.325872 44.444444,83.395039 45.679012,83.395039 46.296296,84.464206 46.913580,83.395039 48.148148,83.395039 48.765432,84.464206 48.148148,85.533373 49.382716,85.533373 50.000000,86.602540 50.617284,85.533373 51.851852,85.533373 51.234568,84.464206 51.851852,83.395039 53.086420,83.395039 53.703704,84.464206 54.320988,83.395039 55.555556,83.395039 54.938272,82.325872 55.555556,81.256705 54.320988,81.256705 53.703704,80.187537 54.320988,79.118370 55.555556,79.118370 54.938272,78.049203 55.555556,76.980036 56.790123,76.980036 57.407407,78.049203 58.024691,76.980036 59.259259,76.980036 59.876543,78.049203 59.259259,79.118370 60.493827,79.118370 61.111111,80.187537 61.728395,79.118370 62.962963,79.118370 62.345679,78.049203 62.962963,76.980036 64.197531,76.980036 64.814815,78.049203 65.432099,76.980036 66.666667,76.980036 66.049383,75.910869 66.666667,74.841702 65.432099,74.841702 64.814815,73.772534 65.432099,72.703367 66.666667,72.703367 66.049383,71.634200 66.666667,70.565033 65.432099,70.565033 64.814815,69.495866 64.197531,70.565033 62.962963,70.565033 62.345679,69.495866 62.962963,68.426699 61.728395,68.426699 61.111111,67.357531 61.728395,66.288364 62.962963,66.288364 62.345679,65.219197 62.962963,64.150030 64.197531,64.150030 64.814815,65.219197 65.432099,64.150030 66.666667,64.150030 66.049383,63.080863 66.666667,62.011696 65.432099,62.011696 64.814815,60.942528 65.432099,59.873361 66.666667,59.873361 66.049383,58.804194 66.666667,57.735027 67.901235,57.735027 68.518519,58.804194 69.135802,57.735027 70.370370,57.735027 70.987654,58.804194 70.370370,59.873361 71.604938,59.873361 72.222222,60.942528 72.839506,59.873361 74.074074,59.873361 73.456790,58.804194 74.074074,57.735027 75.308642,57.735027 75.925926,58.804194 76.543210,57.735027 77.777778,57.735027 78.395062,58.804194 77.777778,59.873361 79.012346,59.873361 79.629630,60.942528 79.012346,62.011696 77.777778,62.011696 78.395062,63.080863 77.777778,64.150030 79.012346,64.150030 79.629630,65.219197 80.246914,64.150030 81.481481,64.150030 82.098765,65.219197 81.481481,66.288364 82.716049,66.288364 83.333333,67.357531 83.950617,66.288364 85.185185,66.288364 84.567901,65.219197 85.185185,64.150030 86.419753,64.150030 87.037037,65.219197 87.654321,64.150030 88.888889,64.150030 88.271605,63.080863 88.888889,62.011696 87.654321,62.011696 87.037037,60.942528 87.654321,59.873361 88.888889,59.873361 88.271605,58.804194 88.888889,57.735027 90.123457,57.735027 90.740741,58.804194 91.358025,57.735027 92.592593,57.735027 93.209877,58.804194 92.592593,59.873361 93.827160,59.873361 94.444444,60.942528 95.061728,59.873361 96.296296,59.873361 95.679012,58.804194 96.296296,57.735027 97.530864,57.735027 98.148148,58.804194 98.765432,57.735027 100.000000,57.735027 99.382716,56.665860 100.000000,55.596693 98.765432,55.596693 98.148148,54.527525 98.765432,53.458358 100.000000,53.458358 99.382716,52.389191 100.000000,51.320024 98.765432,51.320024 98.148148,50.250857 97.530864,51.320024 96.296296,51.320024 95.679012,50.250857 96.296296,49.181690 95.061728,49.181690 94.444444,48.112522 95.061728,47.043355 96.296296,47.043355 95.679012,45.974188 96.296296,44.905021 97.530864,44.905021 98.148148,45.974188 98.765432,44.905021 100.000000,44.905021 99.382716,43.835854 100.000000,42.766687 98.765432,42.766687 98.148148,41.697519 98.765432,40.628352 100.000000,40.628352 99.382716,39.559185 100.000000,38.490018 98.765432,38.490018 98.148148,37.420851 97.530864,38.490018 96.296296,38.490018 95.679012,37.420851 96.296296,36.351684 95.061728,36.351684 94.444444,35.282516 93.827160,36.351684 92.592593,36.351684 93.209877,37.420851 92.592593,38.490018 91.358025,38.490018 90.740741,37.420851 90.123457,38.490018 88.888889,38.490018 88.271605,37.420851 88.888889,36.351684 87.654321,36.351684 87.037037,35.282516 87.654321,34.213349 88.888889,34.213349 88.271605,33.144182 88.888889,32.075015 87.654321,32.075015 87.037037,31.005848 86.419753,32.075015 85.185185,32.075015 84.567901,31.005848 85.185185,29.936681 83.950617,29.936681 83.333333,28.867513 83.950617,27.798346 85.185185,27.798346 84.567901,26.729179 85.185185,25.660012 86.419753,25.660012 87.037037,26.729179 87.654321,25.660012 88.888889,25.660012 88.271605,24.590845 88.888889,23.521678 87.654321,23.521678 87.037037,22.452510 87.654321,21.383343 88.888889,21.383343 88.271605,20.314176 88.888889,19.245009 90.123457,19.245009 90.740741,20.314176 91.358025,19.245009 92.592593,19.245009 93.209877,20.314176 92.592593,21.383343 93.827160,21.383343 94.444444,22.452510 95.061728,21.383343 96.296296,21.383343 95.679012,20.314176 96.296296,19.245009 97.530864,19.245009 98.148148,20.314176 98.765432,19.245009 100.000000,19.245009 99.382716,18.175842 100.000000,17.106675 98.765432,17.106675 98.148148,16.037507 98.765432,14.968340 100.000000,14.968340 99.382716,13.899173 100.000000,12.830006 98.765432,12.830006 98.148148,11.760839 97.530864,12.830006 96.296296,12.830006 95.679012,11.760839 96.296296,10.691672 95.061728,10.691672 94.444444,9.622504 95.061728,8.553337 96.296296,8.553337 95.679012,7.484170 96.296296,6.415003 97.530864,6.415003 98.148148,7.484170 98.765432,6.415003 100.000000,6.415003 99.382716,5.345836 100.000000,4.276669 98.765432,4.276669 98.148148,3.207501 98.765432,2.138334 100.000000,2.138334 99.382716,1.069167 100.000000,-0.000000 98.765432,-0.000000 98.148148,-1.069167 97.530864,-0.000000 96.296296,-0.000000 95.679012,-1.069167 96.296296,-2.138334 95.061728,-2.138334 94.444444,-3.207501 93.827160,-2.138334 92.592593,-2.138334 93.209877,-1.069167 92.592593,-0.000000 91.358025,-0.000000 90.740741,-1.069167 90.123457,-0.000000 88.888889,-0.000000 88.271605,-1.069167 88.888889,-2.138334 87.654321,-2.138334 87.037037,-3.207501 87.654321,-4.276669 88.888889,-4.276669 88.271605,-5.345836 88.888889,-6.415003 87.654321,-6.415003 87.037037,-7.484170 86.419753,-6.415003 85.185185,-6.415003 84.567901,-7.484170 85.185185,-8.553337 83.950617,-8.553337 83.333333,-9.622504 82.716049,-8.553337 81.481481,-8.553337 82.098765,-7.484170 81.481481,-6.415003 80.246914,-6.415003 79.629630,-7.484170 79.012346,-6.415003 77.777778,-6.415003 78.395062,-5.345836 77.777778,-4.276669 79.012346,-4.276669 79.629630,-3.207501 79.012346,-2.138334 77.777778,-2.138334 78.395062,-1.069167 77.777778,-0.000000 76.543210,-0.000000 75.925926,-1.069167 75.308642,-0.000000 74.074074,-0.000000 73.456790,-1.069167 74.074074,-2.138334 72.839506,-2.138334 72.222222,-3.207501 71.604938,-2.138334 70.370370,-2.138334 70.987654,-1.069167 70.370370,-0.000000 69.135802,-0.000000 68.518519,-1.069167 67.901235,-0.000000 66.666667,-0.000000 66.049383,-1.069167 66.666667,-2.138334 65.432099,-2.138334 64.814815,-3.207501 65.432099,-4.276669 66.666667,-4.276669 66.049383,-5.345836 66.666667,-6.415003 65.432099,-6.415003 64.814815,-7.484170 64.197531,-6.415003 62.962963,-6.415003 62.345679,-7.484170 62.962963,-8.553337 61.728395,-8.553337 61.111111,-9.622504 61.728395,-10.691672 62.962963,-10.691672 62.345679,-11.760839 62.962963,-12.830006 64.197531,-12.830006 64.814815,-11.760839 65.432099,-12.830006 66.666667,-12.830006 66.049383,-13.899173 66.666667,-14.968340 65.432099,-14.968340 64.814815,-16.037507 65.432099,-17.106675 66.666667,-17.106675 66.049383,-18.175842 66.666667,-19.245009 65.432099,-19.245009 64.814815,-20.314176 64.197531,-19.245009 62.962963,-19.245009 62.345679,-20.314176 62.962963,-21.383343 61.728395,-21.383343 61.111111,-22.452510 60.493827,-21.383343 59.259259,-21.383343 59.876543,-20.314176 59.259259,-19.245009 58.024691,-19.245009 57.407407,-20.314176 56.790123,-19.245009 55.555556,-19.245009 54.938272,-20.314176 55.555556,-21.383343 54.320988,-21.383343 53.703704,-22.452510 54.320988,-23.521678 55.555556,-23.521678 54.938272,-24.590845 55.555556,-25.660012 54.320988,-25.660012 53.703704,-26.729179 53.086420,-25.660012 51.851852,-25.660012 51.234568,-26.729179 51.851852,-27.798346 50.617284,-27.798346 50.000000,-28.867513 49.382716,-27.798346 48.148148,-27.798346 48.765432,-26.729179 48.148148,-25.660012 46.913580,-25.660012 46.296296,-26.729179 45.679012,-25.660012 44.444444,-25.660012 45.061728,-24.590845 44.444444,-23.521678 45.679012,-23.521678 46.296296,-22.452510 45.679012,-21.383343 44.444444,-21.383343 45.061728,-20.314176 44.444444,-19.245009 43.209877,-19.245009 42.592593,-20.314176 41.975309,-19.245009 40.740741,-19.245009 40.123457,-20.314176 40.740741,-21.383343 39.506173,-21.383343 38.888889,-22.452510 38.271605,-21.383343 37.037037,-21.383343 37.654321,-20.314176 37.037037,-19.245009 35.802469,-19.245009 35.185185,-20.314176 34.567901,-19.245009 33.333333,-19.245009 33.950617,-18.175842 33.333333,-17.106675 34.567901,-17.106675 35.185185,-16.037507 34.567901,-14.968340 33.333333,-14.968340 33.950617,-13.899173 33.333333,-12.830006 34.567901,-12.830006 35.185185,-11.760839 35.802469,-12.830006 37.037037,-12.830006 37.654321,-11.760839 37.037037,-10.691672 38.271605,-10.691672 38.888889,-9.622504 38.271605,-8.553337 37.037037,-8.553337 37.654321,-7.484170 37.037037,-6.415003 35.802469,-6.415003 35.185185,-7.484170 34.567901,-6.415003 33.333333,-6.415003 33.950617,-5.345836 33.333333,-4.276669 34.567901,-4.276669 35.185185,-3.207501 34.567901,-2.138334 33.333333,-2.138334 33.950617,-1.069167 33.333333,-0.000000 32.098765,-0.000000 31.481481,-1.069167 30.864198,-0.000000 29.629630,-0.000000 29.012346,-1.069167 29.629630,-2.138334 28.395062,-2.138334 27.777778,-3.207501 27.160494,-2.138334 25.925926,-2.138334 26.543210,-1.069167 25.925926,-0.000000 24.691358,-0.000000 24.074074,-1.069167 23.456790,-0.000000 22.222222,-0.000000 21.604938,-1.069167 22.222222,-2.138334 20.987654,-2.138334 20.370370,-3.207501 20.987654,-4.276669 22.222222,-4.276669 21.604938,-5.345836 22.222222,-6.415003 20.987654,-6.415003 20.370370,-7.484170 19.753086,-6.415003 18.518519,-6.415003 17.901235,-7.484170 18.518519,-8.553337 17.283951,-8.553337 16.666667,-9.622504 16.049383,-8.553337 14.814815,-8.553337 15.432099,-7.484170 14.814815,-6.415003 13.580247,-6.415003 12.962963,-7.484170 12.345679,-6.415003 11.111111,-6.415003 11.728395,-5.345836 11.111111,-4.276669 12.345679,-4.276669 12.962963,-3.207501 12.345679,-2.138334 11.111111,-2.138334 11.728395,-1.069167 11.111111,-0.000000 9.876543,-0.000000 9.259259,-1.069167 8.641975,-0.000000 7.407407,-0.000000 6.790123,-1.069167 7.407407,-2.138334 6.172840,-2.138334 5.555556,-3.207501 4.938272,-2.138334 3.703704,-2.138334 4.320988,-1.069167 3.703704,0.000000 2.469136,0.000000 1.851852,-1.069167 1.234568,0.000000 0.000000,0.000000" />
</svg>