<?xml version="1.0" encoding="UTF-8"?>
<svg xmlns="http://www.w3.org/2000/svg" xmlns:xlink="http://www.w3.org/1999/xlink" version="1.1" baseProfile="full" viewBox="-40 -163 181 173" stroke-width="0.5" fill="white" stroke="#000">
<path d="M 0.000000,0.000000 L -1.722093,-5.300056 2.786405,-8.575671 4.508497,-13.875728 2.786405,-8.575671 -2.786405,-8.575671 -4.508497,-13.875728 0.000000,-17.151343 4.508497,-13.875728 10.081306,-13.875728 4.508497,-13.875728 2.786405,-19.175784 7.294902,-22.451399 9.016994,-27.751455 14.589803,-27.751455 19.098301,-31.027070 14.589803,-27.751455 10.081306,-31.027070 11.803399,-36.327126 10.081306,-31.027070 4.508497,-31.027070 0.000000,-27.751455 4.508497,-31.027070 9.016994,-27.751455 7.294902,-22.451399 1.722093,-22.451399 0.000000,-27.751455 -4.508497,-31.027070 0.000000,-27.751455 -1.722093,-22.451399 -7.294902,-22.451399 -9.016994,-27.751455 -4.508497,-31.027070 -2.786405,-36.327126 -4.508497,-31.027070 -10.081306,-31.027070 -11.803399,-36.327126 -7.294902,-39.602741 -2.786405,-36.327126 2.786405,-36.327126 -2.786405,-36.327126 -4.508497,-41.627183 0.000000,-44.902798 4.508497,-41.627183 2.786405,-36.327126 4.508497,-31.027070 2.786405,-36.327126 7.294902,-39.602741 11.803399,-36.327126 17.376208,-36.327126 19.098301,-31.027070 23.606798,-27.751455 19.098301,-31.027070 20.820393,-36.327126 26.393202,-36.327126 20.820393,-36.327126 19.098301,-41.627183 14.589803,-44.902798 19.098301,-41.627183 17.376208,-36.327126 11.803399,-36.327126 10.081306,-41.627183 14.589803,-44.902798 16.311896,-50.202854 14.589803,-44.902798 9.016994,-44.902798 7.294902,-50.202854 11.803399,-53.478469 16.311896,-50.202854 21.884705,-50.202854 16.311896,-50.202854 14.589803,-55.502910 19.098301,-58.778525 20.820393,-64.078582 26.393202,-64.078582 30.901699,-67.354196 26.393202,-64.078582 21.884705,-67.354196 23.606798,-72.654253 29.179607,-72.654253 30.901699,-67.354196 35.410197,-64.078582 30.901699,-67.354196 32.623792,-72.654253 38.196601,-72.654253 42.705098,-75.929868 47.213595,-72.654253 52.786405,-72.654253 47.213595,-72.654253 45.491503,-77.954309 50.000000,-81.229924 45.491503,-77.954309 40.983006,-81.229924 35.410197,-81.229924 40.983006,-81.229924 42.705098,-75.929868 38.196601,-72.654253 33.688104,-75.929868 35.410197,-81.229924 33.688104,-86.529980 35.410197,-81.229924 30.901699,-77.954309 26.393202,-81.229924 28.115295,-86.529980 33.688104,-86.529980 38.196601,-89.805595 33.688104,-86.529980 29.179607,-89.805595 30.901699,-95.105652 29.179607,-89.805595 23.606798,-89.805595 19.098301,-86.529980 23.606798,-89.805595 28.115295,-86.529980 26.393202,-81.229924 20.820393,-81.229924 19.098301,-86.529980 14.589803,-89.805595 19.098301,-86.529980 17.376208,-81.229924 11.803399,-81.229924 7.294902,-77.954309 2.786405,-81.229924 -2.786405,-81.229924 2.786405,-81.229924 4.508497,-75.929868 0.000000,-72.654253 4.508497,-75.929868 9.016994,-72.654253 14.589803,-72.654253 9.016994,-72.654253 7.294902,-77.954309 11.803399,-81.229924 16.311896,-77.954309 14.589803,-72.654253 16.311896,-67.354196 14.589803,-72.654253 19.098301,-75.929868 23.606798,-72.654253 21.884705,-67.354196 16.311896,-67.354196 11.803399,-64.078582 16.311896,-67.354196 20.820393,-64.078582 19.098301,-58.778525 13.525492,-58.778525 11.803399,-64.078582 7.294902,-67.354196 11.803399,-64.078582 10.081306,-58.778525 4.508497,-58.778525 2.786405,-64.078582 7.294902,-67.354196 9.016994,-72.654253 7.294902,-67.354196 1.722093,-67.354196 0.000000,-72.654253 -4.508497,-75.929868 -2.786405,-81.229924 -4.508497,-86.529980 -2.786405,-81.229924 -7.294902,-77.954309 -11.803399,-81.229924 -7.294902,-77.954309 -9.016994,-72.654253 -7.294902,-67.354196 -9.016994,-72.654253 -4.508497,-75.929868 0.000000,-72.654253 -1.722093,-67.354196 -7.294902,-67.354196 -11.803399,-64.078582 -7.294902,-67.354196 -2.786405,-64.078582 -4.508497,-58.778525 -10.081306,-58.778525 -11.803399,-64.078582 -16.311896,-67.354196 -11.803399,-64.078582 -13.525492,-58.778525 -19.098301,-58.778525 -20.820393,-64.078582 -16.311896,-67.354196 -14.589803,-72.654253 -16.311896,-67.354196 -21.884705,-67.354196 -23.606798,-72.654253 -19.098301,-75.929868 -14.589803,-72.654253 -9.016994,-72.654253 -14.589803,-72.654253 -16.311896,-77.954309 -11.803399,-81.229924 -10.081306,-86.529980 -4.508497,-86.529980 0.000000,-89.805595 -4.508497,-86.529980 -9.016994,-89.805595 -7.294902,-95.105652 -9.016994,-89.805595 -14.589803,-89.805595 -19.098301,-86.529980 -14.589803,-89.805595 -10.081306,-86.529980 -11.803399,-81.229924 -17.376208,-81.229924 -19.098301,-86.529980 -23.606798,-89.805595 -19.098301,-86.529980 -20.820393,-81.229924 -26.393202,-81.229924 -28.115295,-86.529980 -23.606798,-89.805595 -21.884705,-95.105652 -23.606798,-89.805595 -29.179607,-89.805595 -30.901699,-95.105652 -26.393202,-98.381267 -21.884705,-95.105652 -16.311896,-95.105652 -21.884705,-95.105652 -23.606798,-100.405708 -19.098301,-103.681323 -14.589803,-100.405708 -16.311896,-95.105652 -14.589803,-89.805595 -16.311896,-95.105652 -11.803399,-98.381267 -7.294902,-95.105652 -1.722093,-95.105652 0.000000,-89.805595 4.508497,-86.529980 0.000000,-89.805595 1.722093,-95.105652 7.294902,-95.105652 1.722093,-95.105652 0.000000,-100.405708 -4.508497,-103.681323 0.000000,-100.405708 -1.722093,-95.105652 -7.294902,-95.105652 -9.016994,-100.405708 -4.508497,-103.681323 -2.786405,-108.981379 -4.508497,-103.681323 -10.081306,-103.681323 -11.803399,-108.981379 -7.294902,-112.256994 -2.786405,-108.981379 2.786405,-108.981379 -2.786405,-108.981379 -4.508497,-114.281436 0.000000,-117.557050 4.508497,-114.281436 2.786405,-108.981379 4.508497,-103.681323 2.786405,-108.981379 7.294902,-112.256994 11.803399,-108.981379 10.081306,-103.681323 4.508497,-103.681323 0.000000,-100.405708 4.508497,-103.681323 9.016994,-100.405708 7.294902,-95.105652 9.016994,-89.805595 4.508497,-86.529980 2.786405,-81.229924 4.508497,-86.529980 10.081306,-86.529980 11.803399,-81.229924 10.081306,-86.529980 14.589803,-89.805595 16.311896,-95.105652 14.589803,-89.805595 9.016994,-89.805595 7.294902,-95.105652 11.803399,-98.381267 16.311896,-95.105652 21.884705,-95.105652 16.311896,-95.105652 14.589803,-100.405708 19.098301,-103.681323 23.606798,-100.405708 21.884705,-95.105652 23.606798,-89.805595 21.884705,-95.105652 26.393202,-98.381267 30.901699,-95.105652 36.474508,-95.105652 38.196601,-89.805595 42.705098,-86.529980 38.196601,-89.805595 39.918694,-95.105652 45.491503,-95.105652 47.213595,-89.805595 42.705098,-86.529980 40.983006,-81.229924 42.705098,-86.529980 48.277907,-86.529980 50.000000,-81.229924 54.508497,-77.954309 52.786405,-72.654253 54.508497,-67.354196 52.786405,-72.654253 57.294902,-75.929868 61.803399,-72.654253 57.294902,-75.929868 59.016994,-81.229924 57.294902,-86.529980 59.016994,-81.229924 54.508497,-77.954309 50.000000,-81.229924 51.722093,-86.529980 57.294902,-86.529980 61.803399,-89.805595 57.294902,-86.529980 52.786405,-89.805595 54.508497,-95.105652 60.081306,-95.105652 61.803399,-89.805595 66.311896,-86.529980 61.803399,-89.805595 63.525492,-95.105652 69.098301,-95.105652 63.525492,-95.105652 61.803399,-100.405708 57.294902,-103.681323 61.803399,-100.405708 60.081306,-95.105652 54.508497,-95.105652 52.786405,-100.405708 57.294902,-103.681323 59.016994,-108.981379 57.294902,-103.681323 51.722093,-103.681323 50.000000,-108.981379 45.491503,-112.256994 47.213595,-117.557050 45.491503,-122.857107 47.213595,-117.557050 42.705098,-114.281436 38.196601,-117.557050 42.705098,-114.281436 40.983006,-108.981379 42.705098,-103.681323 40.983006,-108.981379 45.491503,-112.256994 50.000000,-108.981379 48.277907,-103.681323 42.705098,-103.681323 38.196601,-100.405708 42.705098,-103.681323 47.213595,-100.405708 45.491503,-95.105652 39.918694,-95.105652 38.196601,-100.405708 33.688104,-103.681323 38.196601,-100.405708 36.474508,-95.105652 30.901699,-95.105652 29.179607,-100.405708 33.688104,-103.681323 35.410197,-108.981379 33.688104,-103.681323 28.115295,-103.681323 26.393202,-108.981379 30.901699,-112.256994 35.410197,-108.981379 40.983006,-108.981379 35.410197,-108.981379 33.688104,-114.281436 38.196601,-117.557050 39.918694,-122.857107 45.491503,-122.857107 50.000000,-126.132722 45.491503,-122.857107 40.983006,-126.132722 42.705098,-131.432778 40.983006,-126.132722 35.410197,-126.132722 30.901699,-122.857107 35.410197,-126.132722 39.918694,-122.857107 38.196601,-117.557050 32.623792,-117.557050 30.901699,-122.857107 26.393202,-126.132722 30.901699,-122.857107 29.179607,-117.557050 23.606798,-117.557050 21.884705,-122.857107 26.393202,-126.132722 28.115295,-131.432778 26.393202,-126.132722 20.820393,-126.132722 19.098301,-131.432778 23.606798,-134.708393 28.115295,-131.432778 33.688104,-131.432778 28.115295,-131.432778 26.393202,-136.732834 30.901699,-140.008449 35.410197,-136.732834 33.688104,-131.432778 35.410197,-126.132722 33.688104,-131.432778 38.196601,-134.708393 42.705098,-131.432778 48.277907,-131.432778 50.000000,-126.132722 54.508497,-122.857107 50.000000,-126.132722 51.722093,-131.432778 57.294902,-131.432778 51.722093,-131.432778 50.000000,-136.732834 45.491503,-140.008449 50.000000,-136.732834 48.277907,-131.432778 42.705098,-131.432778 40.983006,-136.732834 45.491503,-140.008449 47.213595,-145.308506 45.491503,-140.008449 39.918694,-140.008449 38.196601,-145.308506 42.705098,-148.584121 47.213595,-145.308506 52.786405,-145.308506 47.213595,-145.308506 45.491503,-150.608562 50.000000,-153.884177 54.508497,-150.608562 52.786405,-145.308506 54.508497,-140.008449 52.786405,-145.308506 57.294902,-148.584121 61.803399,-145.308506 60.081306,-140.008449 54.508497,-140.008449 50.000000,-136.732834 54.508497,-140.008449 59.016994,-136.732834 57.294902,-131.432778 59.016994,-126.132722 54.508497,-122.857107 52.786405,-117.557050 54.508497,-122.857107 60.081306,-122.857107 61.803399,-117.557050 60.081306,-122.857107 64.589803,-126.132722 66.311896,-131.432778 64.589803,-126.132722 59.016994,-126.132722 57.294902,-131.432778 61.803399,-134.708393 66.311896,-131.432778 71.884705,-131.432778 66.311896,-131.432778 64.589803,-136.732834 69.098301,-140.008449 73.606798,-136.732834 71.884705,-131.432778 73.606798,-126.132722 71.884705,-131.432778 76.393202,-134.708393 80.901699,-131.432778 79.179607,-126.132722 73.606798,-126.132722 69.098301,-122.857107 73.606798,-126.132722 78.115295,-122.857107 76.393202,-117.557050 70.820393,-117.557050 69.098301,-122.857107 64.589803,-126.132722 69.098301,-122.857107 67.376208,-117.557050 61.803399,-117.557050 57.294902,-114.281436 52.786405,-117.557050 47.213595,-117.557050 52.786405,-117.557050 54.508497,-112.256994 50.000000,-108.981379 54.508497,-112.256994 59.016994,-108.981379 64.589803,-108.981379 59.016994,-108.981379 57.294902,-114.281436 61.803399,-117.557050 66.311896,-114.281436 64.589803,-108.981379 66.311896,-103.681323 64.589803,-108.981379 69.098301,-112.256994 73.606798,-108.981379 71.884705,-103.681323 66.311896,-103.681323 61.803399,-100.405708 66.311896,-103.681323 70.820393,-100.405708 69.098301,-95.105652 70.820393,-89.805595 66.311896,-86.529980 64.589803,-81.229924 66.311896,-86.529980 71.884705,-86.529980 73.606798,-81.229924 69.098301,-77.954309 64.589803,-81.229924 59.016994,-81.229924 64.589803,-81.229924 66.311896,-75.929868 61.803399,-72.654253 60.081306,-67.354196 54.508497,-67.354196 50.000000,-64.078582 54.508497,-67.354196 59.016994,-64.078582 57.294902,-58.778525 59.016994,-64.078582 64.589803,-64.078582 69.098301,-67.354196 64.589803,-64.078582 60.081306,-67.354196 61.803399,-72.654253 67.376208,-72.654253 69.098301,-67.354196 73.606798,-64.078582 69.098301,-67.354196 70.820393,-72.654253 76.393202,-72.654253 78.115295,-67.354196 73.606798,-64.078582 71.884705,-58.778525 73.606798,-64.078582 79.179607,-64.078582 80.901699,-58.778525 79.179607,-64.078582 83.688104,-67.354196 85.410197,-72.654253 83.688104,-67.354196 78.115295,-67.354196 76.393202,-72.654253 80.901699,-75.929868 85.410197,-72.654253 90.983006,-72.654253 85.410197,-72.654253 83.688104,-77.954309 88.196601,-81.229924 89.918694,-86.529980 95.491503,-86.529980 100.000000,-89.805595 95.491503,-86.529980 90.983006,-89.805595 92.705098,-95.105652 90.983006,-89.805595 85.410197,-89.805595 80.901699,-86.529980 85.410197,-89.805595 89.918694,-86.529980 88.196601,-81.229924 82.623792,-81.229924 80.901699,-86.529980 76.393202,-89.805595 80.901699,-86.529980 79.179607,-81.229924 73.606798,-81.229924 71.884705,-86.529980 76.393202,-89.805595 78.115295,-95.105652 76.393202,-89.805595 70.820393,-89.805595 69.098301,-95.105652 73.606798,-98.381267 78.115295,-95.105652 83.688104,-95.105652 78.115295,-95.105652 76.393202,-100.405708 80.901699,-103.681323 85.410197,-100.405708 83.688104,-95.105652 85.410197,-89.805595 83.688104,-95.105652 88.196601,-98.381267 92.705098,-95.105652 98.277907,-95.105652 100.000000,-89.805595 104.508497,-86.529980 100.000000,-89.805595 101.722093,-95.105652 107.294902,-95.105652 101.722093,-95.105652 100.000000,-100.405708 95.491503,-103.681323 100.000000,-100.405708 98.277907,-95.105652 92.705098,-95.105652 90.983006,-100.405708 95.491503,-103.681323 97.213595,-108.981379 95.491503,-103.681323 89.918694,-103.681323 88.196601,-108.981379 92.705098,-112.256994 97.213595,-108.981379 102.786405,-108.981379 97.213595,-108.981379 95.491503,-114.281436 100.000000,-117.557050 104.508497,-114.281436 102.786405,-108.981379 104.508497,-103.681323 102.786405,-108.981379 107.294902,-112.256994 111.803399,-108.981379 110.081306,-103.681323 104.508497,-103.681323 100.000000,-100.405708 104.508497,-103.681323 109.016994,-100.405708 107.294902,-95.105652 109.016994,-89.805595 104.508497,-86.529980 102.786405,-81.229924 104.508497,-86.529980 110.081306,-86.529980 111.803399,-81.229924 110.081306,-86.529980 114.589803,-89.805595 116.311896,-95.105652 114.589803,-89.805595 109.016994,-89.805595 107.294902,-95.105652 111.803399,-98.381267 116.311896,-95.105652 121.884705,-95.105652 116.311896,-95.105652 114.589803,-100.405708 119.098301,-103.681323 123.606798,-100.405708 121.884705,-95.105652 123.606798,-89.805595 121.884705,-95.105652 126.393202,-98.381267 130.901699,-95.105652 129.179607,-89.805595 123.606798,-89.805595 119.098301,-86.529980 123.606798,-89.805595 128.115295,-86.529980 126.393202,-81.229924 120.820393,-81.229924 119.098301,-86.529980 114.589803,-89.805595 119.098301,-86.529980 117.376208,-81.229924 111.803399,-81.229924 107.294902,-77.954309 102.786405,-81.229924 97.213595,-81.229924 102.786405,-81.229924 104.508497,-75.929868 100.000000,-72.654253 104.508497,-75.929868 109.016994,-72.654253 114.589803,-72.654253 109.016994,-72.654253 107.294902,-77.954309 111.803399,-81.229924 116.311896,-77.954309 114.589803,-72.654253 116.311896,-67.354196 114.589803,-72.654253 119.098301,-75.929868 123.606798,-72.654253 121.884705,-67.354196 116.311896,-67.354196 111.803399,-64.078582 116.311896,-67.354196 120.820393,-64.078582 119.098301,-58.778525 113.525492,-58.778525 111.803399,-64.078582 107.294902,-67.354196 111.803399,-64.078582 110.081306,-58.778525 104.508497,-58.778525 102.786405,-64.078582 107.294902,-67.354196 109.016994,-72.654253 107.294902,-67.354196 101.722093,-67.354196 100.000000,-72.654253 95.491503,-75.929868 97.213595,-81.229924 95.491503,-86.529980 97.213595,-81.229924 92.705098,-77.954309 88.196601,-81.229924 92.705098,-77.954309 90.983006,-72.654253 92.705098,-67.354196 90.983006,-72.654253 95.491503,-75.929868 100.000000,-72.654253 98.277907,-67.354196 92.705098,-67.354196 88.196601,-64.078582 92.705098,-67.354196 97.213595,-64.078582 95.491503,-58.778525 89.918694,-58.778525 88.196601,-64.078582 83.688104,-67.354196 88.196601,-64.078582 86.474508,-58.778525 80.901699,-58.778525 76.393202,-55.502910 71.884705,-58.778525 66.311896,-58.778525 71.884705,-58.778525 73.606798,-53.478469 69.098301,-50.202854 64.589803,-53.478469 66.311896,-58.778525 64.589803,-64.078582 66.311896,-58.778525 61.803399,-55.502910 57.294902,-58.778525 51.722093,-58.778525 50.000000,-64.078582 45.491503,-67.354196 50.000000,-64.078582 48.277907,-58.778525 42.705098,-58.778525 48.277907,-58.778525 50.000000,-53.478469 54.508497,-50.202854 50.000000,-53.478469 51.722093,-58.778525 57.294902,-58.778525 59.016994,-53.478469 54.508497,-50.202854 52.786405,-44.902798 54.508497,-50.202854 60.081306,-50.202854 61.803399,-44.902798 57.294902,-41.627183 52.786405,-44.902798 47.213595,-44.902798 52.786405,-44.902798 54.508497,-39.602741 50.000000,-36.327126 54.508497,-39.602741 59.016994,-36.327126 64.589803,-36.327126 59.016994,-36.327126 57.294902,-41.627183 61.803399,-44.902798 66.311896,-41.627183 64.589803,-36.327126 66.311896,-31.027070 64.589803,-36.327126 69.098301,-39.602741 73.606798,-36.327126 79.179607,-36.327126 80.901699,-31.027070 85.410197,-27.751455 80.901699,-31.027070 82.623792,-36.327126 88.196601,-36.327126 82.623792,-36.327126 80.901699,-41.627183 76.393202,-44.902798 80.901699,-41.627183 79.179607,-36.327126 73.606798,-36.327126 71.884705,-41.627183 76.393202,-44.902798 78.115295,-50.202854 76.393202,-44.902798 70.820393,-44.902798 69.098301,-50.202854 73.606798,-53.478469 78.115295,-50.202854 83.688104,-50.202854 78.115295,-50.202854 76.393202,-55.502910 80.901699,-58.778525 85.410197,-55.502910 83.688104,-50.202854 85.410197,-44.902798 83.688104,-50.202854 88.196601,-53.478469 92.705098,-50.202854 90.983006,-44.902798 85.410197,-44.902798 80.901699,-41.627183 85.410197,-44.902798 89.918694,-41.627183 88.196601,-36.327126 89.918694,-31.027070 85.410197,-27.751455 83.688104,-22.451399 85.410197,-27.751455 90.983006,-27.751455 92.705098,-22.451399 90.983006,-27.751455 95.491503,-31.027070 97.213595,-36.327126 95.491503,-31.027070 89.918694,-31.027070 88.196601,-36.327126 92.705098,-39.602741 97.213595,-36.327126 102.786405,-36.327126 97.213595,-36.327126 95.491503,-41.627183 100.000000,-44.902798 104.508497,-41.627183 102.786405,-36.327126 104.508497,-31.027070 102.786405,-36.327126 107.294902,-39.602741 111.803399,-36.327126 110.081306,-31.027070 104.508497,-31.027070 100.000000,-27.751455 104.508497,-31.027070 109.016994,-27.751455 107.294902,-22.451399 101.722093,-22.451399 100.000000,-27.751455 95.491503,-31.027070 100.000000,-27.751455 98.277907,-22.451399 92.705098,-22.451399 88.196601,-19.175784 83.688104,-22.451399 78.115295,-22.451399 83.688104,-22.451399 85.410197,-17.151343 80.901699,-13.875728 85.410197,-17.151343 89.918694,-13.875728 95.491503,-13.875728 89.918694,-13.875728 88.196601,-19.175784 92.705098,-22.451399 97.213595,-19.175784 95.491503,-13.875728 97.213595,-8.575671 95.491503,-13.875728 100.000000,-17.151343 104.508497,-13.875728 102.786405,-8.575671 97.213595,-8.575671 92.705098,-5.300056 97.213595,-8.575671 101.722093,-5.300056 100.000000,-0.000000 94.427191,-0.000000 92.705098,-5.300056 88.196601,-8.575671 92.705098,-5.300056 90.983006,-0.000000 85.410197,-0.000000 83.688104,-5.300056 88.196601,-8.575671 89.918694,-13.875728 88.196601,-8.575671 82.623792,-8.575671 80.901699,-13.875728 76.393202,-17.151343 78.115295,-22.451399 76.393202,-27.751455 78.115295,-22.451399 73.606798,-19.175784 69.098301,-22.451399 73.606798,-19.175784 71.884705,-13.875728 73.606798,-8.575671 71.884705,-13.875728 76.393202,-17.151343 80.901699,-13.875728 79.179607,-8.575671 73.606798,-8.575671 69.098301,-5.300056 73.606798,-8.575671 78.115295,-5.300056 76.393202,0.000000 70.820393,0.000000 69.098301,-5.300056 64.589803,-8.575671 69.098301,-5.300056 67.376208,0.000000 61.803399,0.000000 60.081306,-5.300056 64.589803,-8.575671 66.311896,-13.875728 64.589803,-8.575671 59.016994,-8.575671 57.294902,-13.875728 61.803399,-17.151343 66.311896,-13.875728 71.884705,-13.875728 66.311896,-13.875728 64.589803,-19.175784 69.098301,-22.451399 70.820393,-27.751455 76.393202,-27.751455 80.901699,-31.027070 76.393202,-27.751455 71.884705,-31.027070 73.606798,-36.327126 71.884705,-31.027070 66.311896,-31.027070 61.803399,-27.751455 66.311896,-31.027070 70.820393,-27.751455 69.098301,-22.451399 63.525492,-22.451399 61.803399,-27.751455 57.294902,-31.027070 61.803399,-27.751455 60.081306,-22.451399 54.508497,-22.451399 52.786405,-27.751455 57.294902,-31.027070 59.016994,-36.327126 57.294902,-31.027070 51.722093,-31.027070 50.000000,-36.327126 45.491503,-39.602741 47.213595,-44.902798 45.491503,-50.202854 47.213595,-44.902798 42.705098,-41.627183 38.196601,-44.902798 39.918694,-50.202854 45.491503,-50.202854 50.000000,-53.478469 45.491503,-50.202854 40.983006,-53.478469 42.705098,-58.778525 40.983006,-64.078582 45.491503,-67.354196 47.213595,-72.654253 45.491503,-67.354196 39.918694,-67.354196 38.196601,-72.654253 39.918694,-67.354196 35.410197,-64.078582 33.688104,-58.778525 35.410197,-64.078582 40.983006,-64.078582 42.705098,-58.778525 38.196601,-55.502910 33.688104,-58.778525 28.115295,-58.778525 33.688104,-58.778525 35.410197,-53.478469 30.901699,-50.202854 26.393202,-53.478469 28.115295,-58.778525 26.393202,-64.078582 28.115295,-58.778525 23.606798,-55.502910 19.098301,-58.778525 23.606798,-55.502910 21.884705,-50.202854 23.606798,-44.902798 21.884705,-50.202854 26.393202,-53.478469 30.901699,-50.202854 29.179607,-44.902798 23.606798,-44.902798 19.098301,-41.627183 23.606798,-44.902798 28.115295,-41.627183 26.393202,-36.327126 28.115295,-31.027070 23.606798,-27.751455 21.884705,-22.451399 23.606798,-27.751455 29.179607,-27.751455 30.901699,-22.451399 29.179607,-27.751455 33.688104,-31.027070 35.410197,-36.327126 33.688104,-31.027070 28.115295,-31.027070 26.393202,-36.327126 30.901699,-39.602741 35.410197,-36.327126 40.983006,-36.327126 35.410197,-36.327126 33.688104,-41.627183 38.196601,-44.902798 42.705098,-41.627183 40.983006,-36.327126 42.705098,-31.027070 40.983006,-36.327126 45.491503,-39.602741 50.000000,-36.327126 48.277907,-31.027070 42.705098,-31.027070 38.196601,-27.751455 42.705098,-31.027070 47.213595,-27.751455 45.491503,-22.451399 39.918694,-22.451399 38.196601,-27.751455 33.688104,-31.027070 38.196601,-27.751455 36.474508,-22.451399 30.901699,-22.451399 26.393202,-19.175784 21.884705,-22.451399 16.311896,-22.451399 21.884705,-22.451399 23.606798,-17.151343 19.098301,-13.875728 23.606798,-17.151343 28.115295,-13.875728 33.688104,-13.875728 28.115295,-13.875728 26.393202,-19.175784 30.901699,-22.451399 35.410197,-19.175784 33.688104,-13.875728 35.410197,-8.575671 33.688104,-13.875728 38.196601,-17.151343 42.705098,-13.875728 40.983006,-8.575671 35.410197,-8.575671 30.901699,-5.300056 35.410197,-8.575671 39.918694,-5.300056 38.196601,-0.000000 32.623792,-0.000000 30.901699,-5.300056 26.393202,-8.575671 30.901699,-5.300056 29.179607,-0.000000 23.606798,-0.000000 21.884705,-5.300056 26.393202,-8.575671 28.115295,-13.875728 26.393202,-8.575671 20.820393,-8.575671 19.098301,-13.875728 14.589803,-17.151343 16.311896,-22.451399 14.589803,-27.751455 16.311896,-22.451399 11.803399,-19.175784 7.294902,-22.451399 11.803399,-19.175784 10.081306,-13.875728 11.803399,-8.575671 10.081306,-13.875728 14.589803,-17.151343 19.098301,-13.875728 17.376208,-8.575671 11.803399,-8.575671 7.294902,-5.300056 11.803399,-8.575671 16.311896,-5.300056 14.589803,0.000000 9.016994,0.000000 7.294902,-5.300056 2.786405,-8.575671 7.294902,-5.300056 5.572809,0.000000 0.000000,0.000000" />
</svg>